<?xml version="1.0" encoding="UTF-8"?>
<!DOCTYPE svg PUBLIC "-//W3C//DTD SVG 1.1//EN" "http://www.w3.org/Graphics/SVG/1.1/DTD/svg11.dtd">
<!-- Creator: CorelDRAW 2020 (64-Bit) -->
<svg xmlns="http://www.w3.org/2000/svg" xml:space="preserve" width="2.5397mm" height="2.4199mm" version="1.1" style="shape-rendering:geometricPrecision; text-rendering:geometricPrecision; image-rendering:optimizeQuality; fill-rule:evenodd; clip-rule:evenodd"
viewBox="0 0 52.68 50.19"
 xmlns:xlink="http://www.w3.org/1999/xlink"
 xmlns:xodm="http://www.corel.com/coreldraw/odm/2003">
 <defs>
  <style type="text/css">
   <![CDATA[
    .fil0 {fill:#E6C300}
   ]]>
  </style>
 </defs>
 <g id="Layer_x0020_1">
  <metadata id="CorelCorpID_0Corel-Layer"/>
  <g id="_2255959745408">
   <path class="fil0" d="M52.68 24.06c0,3.65 -3.51,2.98 -6.48,2.98l0 21.71c0,0.96 -0.97,1.44 -2.06,1.44l-11.93 0c-37.05,0 31.06,0 -11.73,0l-11.93 0c-1.09,0 -2.06,-0.48 -2.06,-1.44l0 -21.71 -3.7 0c-1.55,0 -2.78,-1.26 -2.78,-2.47 0,-1.98 0.99,-2.34 2.75,-4.04l4.91 -4.46c0.37,-0.29 0.49,-0.43 0.8,-0.74l14.87 -13.53c3.32,-3.37 4.35,-1.36 6.79,0.67l4.89 4.47c0.33,0.33 0.45,0.44 0.81,0.73l14.84 13.55c0.78,0.6 2.02,1.74 2.02,2.82z"/>
   <path class="fil0" d="M5.35 13.98l0 -8.54c-0.01,-3.03 1.33,-2.37 6.17,-2.37 1.92,0 3.84,0 5.76,0 -0.12,0.33 -0.17,0.22 -0.64,0.69l-3.03 2.73c-0.28,0.23 -0.45,0.47 -0.73,0.71 -0.31,0.27 -0.46,0.35 -0.77,0.67l-6.76 6.1z"/>
  </g>
 </g>
</svg>
