<?xml version="1.0" encoding="UTF-8"?>
<!DOCTYPE svg PUBLIC "-//W3C//DTD SVG 1.1//EN" "http://www.w3.org/Graphics/SVG/1.1/DTD/svg11.dtd">
<!-- Creator: CorelDRAW 2020 (64-Bit) -->
<svg xmlns="http://www.w3.org/2000/svg" xml:space="preserve" width="15mm" height="14.2916mm" version="1.1" style="shape-rendering:geometricPrecision; text-rendering:geometricPrecision; image-rendering:optimizeQuality; fill-rule:evenodd; clip-rule:evenodd"
viewBox="0 0 673.65 641.84"
 xmlns:xlink="http://www.w3.org/1999/xlink"
 xmlns:xodm="http://www.corel.com/coreldraw/odm/2003">
 <defs>
  <style type="text/css">
   <![CDATA[
    .fil0 {fill:#E6C300}
   ]]>
  </style>
 </defs>
 <g id="Layer_x0020_1">
  <metadata id="CorelCorpID_0Corel-Layer"/>
  <g id="_2255784893840">
   <path class="fil0" d="M673.65 307.64c0,46.68 -44.83,38.16 -82.89,38.16l0 277.62c0,12.28 -12.41,18.42 -26.31,18.42l-152.63 0c-473.81,0 397.2,0 -149.99,0l-152.63 0c-13.9,0 -26.31,-6.14 -26.31,-18.42l0 -277.62 -47.37 0c-19.78,0 -35.52,-16.15 -35.52,-31.58 0,-25.3 12.62,-29.95 35.17,-51.67l62.75 -56.98c4.76,-3.68 6.22,-5.44 10.28,-9.46l190.15 -172.99c42.49,-43.13 55.64,-17.42 86.78,8.61l62.58 57.15c4.2,4.24 5.75,5.67 10.37,9.36l189.82 173.32c9.96,7.68 25.76,22.29 25.76,36.08z"/>
   <path class="fil0" d="M68.42 178.7l0 -109.21c-0.1,-38.69 16.95,-30.26 78.94,-30.26 24.56,0 49.12,0 73.68,0 -1.53,4.23 -2.21,2.8 -8.23,8.88l-38.75 34.93c-3.6,3.01 -5.78,6.07 -9.28,9.14 -3.97,3.49 -5.91,4.53 -9.86,8.56l-86.51 77.96z"/>
  </g>
 </g>
</svg>
